<svg width="133" height="31" viewBox="0 0 133 31" fill="none" xmlns="http://www.w3.org/2000/svg">
<path d="M9.28484 22.8563C9.53418 21.9836 9.40951 21.0693 8.95238 20.2798C8.37059 19.2408 7.24855 18.5759 6.0434 18.5759C5.4616 18.5759 4.87981 18.7422 4.33957 19.0331C2.71884 19.9889 2.1786 22.0667 3.09286 23.6874C3.67465 24.7264 4.79669 25.3913 6.00184 25.3913C6.58364 25.3913 7.16544 25.225 7.70568 24.9341C8.49526 24.477 9.0355 23.729 9.28484 22.8563Z" fill="black"/>
<path d="M8.62016 12.2593C7.74746 12.01 6.87477 11.9269 6.00207 11.9269C4.25668 11.9269 2.51129 12.384 0.973683 13.2983L0.59967 13.506L2.67752 17.1215L3.05153 16.9137C3.96578 16.3735 4.96315 16.1241 6.00207 16.1241C6.50075 16.1241 7.04099 16.2072 7.53968 16.3319C9.07728 16.7475 10.324 17.7033 11.1136 19.0747C11.9032 20.4461 12.1109 22.0252 11.6954 23.5628C11.2798 25.1004 10.324 26.3471 8.95261 27.1367L8.5786 27.3445L10.6564 30.96L11.0305 30.7522C13.3576 29.4223 15.0199 27.2198 15.7264 24.6433C16.4329 22.0252 16.0588 19.324 14.729 16.9968C13.3992 14.6281 11.2382 12.9658 8.62016 12.2593Z" fill="black"/>
<path d="M29.1906 19.0744C28.6919 18.7835 28.1101 18.6173 27.4868 18.6173C26.2816 18.6173 25.1596 19.2822 24.5778 20.3211C24.1207 21.1107 23.996 22.025 24.2453 22.8977C24.4947 23.7704 25.0349 24.4768 25.8245 24.934C26.3232 25.2249 26.905 25.3911 27.5283 25.3911C28.7335 25.3911 29.8555 24.7262 30.4373 23.6873C31.3516 22.0665 30.8113 19.9887 29.1906 19.0744Z" fill="black"/>
<path d="M21.8353 23.5212C21.4197 21.9836 21.6275 20.4044 22.4171 19.033C23.2066 17.6617 24.4949 16.7059 25.9909 16.2903C26.4896 16.1656 27.0299 16.0825 27.5286 16.0825C28.5675 16.0825 29.5648 16.3734 30.4791 16.8721L30.8531 17.0799L32.931 13.4644L32.5569 13.2566C31.0193 12.3839 29.2739 11.8853 27.5286 11.8853C26.6559 11.8853 25.7832 12.0099 24.9105 12.2177C22.2924 12.9242 20.1314 14.5865 18.8016 16.9136C17.4718 19.2408 17.0978 21.942 17.8042 24.5601C18.4691 27.2198 20.1314 29.3807 22.4586 30.7105L22.8326 30.9183L24.9105 27.3029L24.5365 27.0951C23.2066 26.3055 22.2093 25.0588 21.8353 23.5212Z" fill="black"/>
<path d="M16.7652 6.77366C18.6353 6.77366 20.1313 5.27761 20.1313 3.40755C20.1313 1.53748 18.6353 -0.00012207 16.7652 -0.00012207C14.8952 -0.00012207 13.3991 1.49593 13.3991 3.36599C13.3991 5.23605 14.8952 6.77366 16.7652 6.77366Z" fill="black"/>
<path d="M26.8222 3.36601V2.95044H22.6665V3.40757C22.6665 6.64901 20.0068 9.30865 16.7654 9.30865C13.524 9.30865 10.8643 6.64901 10.8643 3.40757V2.95044H6.70862V3.40757C6.70862 8.97619 11.2383 13.4643 16.7654 13.4643C22.334 13.4643 26.8222 8.93464 26.8222 3.36601Z" fill="black"/>
<path d="M41.9075 17.7033H44.6918V17.8696C44.6918 19.0747 45.5229 19.8643 46.645 19.8643C47.8501 19.8643 48.515 19.1994 48.515 18.202C48.515 17.1631 47.2683 16.706 45.8554 16.1242C44.11 15.3762 42.0737 14.4619 42.0737 11.8854C42.0737 9.68285 43.8191 8.06213 46.4372 8.06213C49.263 8.06213 50.9669 9.51663 50.9669 12.3009H48.3488V12.1347C48.3488 10.888 47.6008 10.3893 46.4372 10.3893C45.3567 10.3893 44.6918 11.0127 44.6918 11.8023C44.6918 12.8827 46.0216 13.3814 47.4761 14.0048C49.2215 14.7528 51.1747 15.7086 51.1747 18.1605C51.1747 20.1968 49.8033 22.2746 46.645 22.2746C43.6113 22.2746 41.9075 20.6539 41.9075 17.7033Z" fill="black"/>
<path d="M51.8811 17.3706C51.8811 14.0045 54.333 12.4669 56.4939 12.4669C57.7406 12.4669 58.6964 12.9656 59.3198 13.6721V12.6331H61.8963V26.4716H59.3198V21.1523C58.6964 21.8588 57.6991 22.2744 56.4524 22.2744C54.4161 22.2744 51.8811 20.6952 51.8811 17.3706ZM59.3613 17.3291C59.3613 15.9161 58.364 14.7941 56.9511 14.7941C55.5381 14.7941 54.4161 15.8746 54.4161 17.3291C54.4161 18.7836 55.5381 19.8641 56.9511 19.8641C58.364 19.9056 59.3613 18.742 59.3613 17.3291Z" fill="black"/>
<path d="M63.2679 17.8694V12.6332H65.8444V17.8278C65.8444 18.9914 66.6755 19.8225 67.7976 19.8225C68.9196 19.8225 69.6261 18.9914 69.5845 17.9109V12.6332H72.1611V17.8694C72.1611 20.4043 70.4157 22.2744 67.7976 22.2744C65.1379 22.2744 63.2679 20.4043 63.2679 17.8694Z" fill="black"/>
<path d="M73.1165 17.3706C73.1165 14.0045 75.5684 12.4669 77.7293 12.4669C78.976 12.4669 79.9318 12.924 80.5552 13.589V12.6747H83.1317V22.1497H80.5552V21.0692C79.9318 21.8172 78.9345 22.3159 77.6878 22.3159C75.6515 22.2744 73.1165 20.6952 73.1165 17.3706ZM80.5968 17.3291C80.5968 15.9161 79.5994 14.7941 78.1865 14.7941C76.7735 14.7941 75.6515 15.8746 75.6515 17.3291C75.6515 18.7836 76.7735 19.8641 78.1865 19.8641C79.5994 19.8641 80.5968 18.742 80.5968 17.3291Z" fill="black"/>
<path d="M84.1709 17.3706C84.1709 14.0045 86.6228 12.4669 88.7837 12.4669C90.0304 12.4669 90.9862 12.924 91.6096 13.5889V8.26965H94.1861V22.1081H91.6096V21.0276C90.9862 21.7757 89.9889 22.2743 88.7422 22.2743C86.7059 22.2743 84.1709 20.6952 84.1709 17.3706ZM91.6511 17.3291C91.6511 15.9161 90.6538 14.7941 89.2408 14.7941C87.8279 14.7941 86.7059 15.8746 86.7059 17.3291C86.7059 18.7836 87.8279 19.864 89.2408 19.864C90.6538 19.9056 91.6511 18.742 91.6511 17.3291Z" fill="black"/>
<path d="M95.7651 8.26965H99.5468C104.243 8.26965 106.861 11.2618 106.861 15.1681C106.861 19.116 103.869 22.0666 99.6714 22.0666H95.7651V8.26965ZM98.3832 10.7215V19.6563H99.339C102.331 19.6563 104.201 17.7446 104.201 15.1681C104.201 12.55 102.622 10.68 99.2143 10.68H98.3832V10.7215Z" fill="black"/>
<path d="M111.515 8.26965H114.175L119.079 22.1081H116.336L115.505 19.6978H110.186L109.354 22.1081H106.612L111.515 8.26965ZM111.058 17.1628H114.632L112.845 12.0098L111.058 17.1628Z" fill="black"/>
<path d="M118.871 15.1681C118.871 11.2618 121.988 8.06189 125.936 8.06189C129.884 8.06189 133 11.2618 133 15.1681C133 19.116 129.842 22.2744 125.936 22.2744C121.988 22.2744 118.871 19.116 118.871 15.1681ZM130.382 15.1681C130.382 12.6747 128.388 10.68 125.894 10.68C123.401 10.68 121.447 12.7163 121.447 15.1681C121.447 17.62 123.401 19.6563 125.894 19.6563C128.388 19.6978 130.382 17.6615 130.382 15.1681Z" fill="black"/>
</svg>
